<svg width="244" height="358" viewBox="0 0 244 358" fill="none" xmlns="http://www.w3.org/2000/svg">
<g id="a person/sitting">
<g id="pose/sitting/mid 1">
<path id="&#240;&#159;&#142;&#168; Background" fill-rule="evenodd" clip-rule="evenodd" d="M60.6481 139.995C58.4721 141.292 56.6661 142.178 54.9645 142.783L52.4619 143.673L54.8155 144.941C56.4141 145.802 57.9343 146.901 59.4628 148.3L60.6424 149.38L61.2117 147.84C61.9594 145.818 62.3233 143.517 62.2931 141.003L62.2692 139.029L60.6481 139.995ZM165.177 146.527C163.14 150.434 160.682 154.28 158.304 157.999C153.057 166.209 147.631 174.698 145.96 184.85C145.83 185.691 145.737 187.593 145.682 190.556L147.237 189.882C152.431 187.633 157.941 185.961 163.27 184.343C165.33 183.718 167.46 183.071 169.547 182.399C170.397 182.157 171.243 181.874 172.061 181.601C174.045 180.938 175.92 180.311 177.891 180.204L178.491 180.172L178.791 179.619C181.506 174.619 179.47 169.853 177.138 165.4C175.737 162.153 173.936 159.103 172.193 156.153C170.387 153.095 168.519 149.933 167.154 146.624L166.258 144.452L165.177 146.527ZM64.9539 187.944C68.041 191.384 70.9085 194.878 73.4769 198.331L75.4272 197.378C74.4844 192.278 71.5575 188.685 66.2156 186.07L64.9539 187.944ZM168.229 264.779C167.92 264.779 167.63 264.907 167.413 265.138C167.192 265.373 167.071 265.689 167.072 266.028L168.229 266.024V264.779ZM39.7675 349.815C37.9538 346.506 37.6873 341.31 40.4055 338.493C39.4913 332.408 41.2873 325.609 45.2651 320.766L45.2743 320.78C51.1803 311.372 51.6143 308.02 47.2992 297.504C39.5873 297.19 31.6438 297.097 24.114 295.18L24.3956 293.39C24.1169 293.311 22.6932 292.914 22.3874 292.83C22.4283 293.163 22.6405 294.683 22.6354 294.987C22.2836 295.397 21.4335 295.777 21.2753 294.971C16.5385 273.435 12.2992 252.326 7.69283 230.822C2.87187 209.119 -6.82343 174.405 16.9088 162.444L16.4189 160.22C15.1083 160.22 14.5817 158.701 13.981 156.555C11.3032 148.877 16.51 141.35 21.379 136.601C28.0343 129.514 34.1741 121.645 40.1136 114.038C57.0561 92.1279 80.109 62.8895 109.577 67.8568L109.478 69.1474C114.087 69.7639 118.9 71.0604 123.568 70.1574C139.503 67.2209 156.84 73.8639 166.641 87.5035L167.001 84.9613C167.035 84.7215 167.116 84.4996 167.473 84.4996C167.94 84.482 168.186 84.8884 168.359 85.2633C185.275 92.3758 192.282 115.527 197.688 131.395C198.378 134.077 198.184 134.87 198.123 135.028L197.142 135.65C207.337 150.078 212.939 167.432 217.745 183.887C219.333 188.274 219.499 191.313 216.846 193.966C234.339 205.148 248.065 222.574 240.304 242.441C230.175 261.772 203.355 274.037 183.21 285.14C175.21 289.751 163.575 292.206 156.214 299.756C155.722 300.529 155.016 301.282 154.589 301.22C151.172 301.758 146.087 279.057 146.86 277.239C143.253 278.611 139.241 278.538 135.469 279.254C135.807 280.044 136.914 281.113 136.086 281.992C136.142 284.658 135.757 287.54 135.205 290.258C139.732 289.486 139.629 292.012 135.274 290.675C135.155 291.853 134.853 294.855 134.738 295.993C136.038 295.385 138.625 294.958 139.532 295.909C139.161 297.176 135.955 295.983 134.72 296.358C133.998 302.058 133.762 307.661 133.255 313.345C137.109 317.251 143.13 318.174 146.569 322.398C149.483 325.613 149.063 331.009 145.644 333.595C147.738 336.208 146.062 340.544 143.005 341.253C138.839 342.288 134.485 340.857 130.378 339.656C123.551 337.264 116.4 333.535 108.52 328.258C105.403 326.192 103.081 322.946 101.978 319.116C93.9829 292.904 91.8465 275.093 95.6201 266.153C97.7736 264.422 100.174 265.49 102.162 264.545C103.11 264.095 103.964 263.489 104.653 261.341C94.2809 260.257 79.1609 262.27 70.8466 256.983L71.1391 256.321C70.3714 255.8 68.6845 253.619 68.0426 252.918C69.1995 267.721 70.1293 282.907 70.5895 297.658C72.1146 300.387 73.4097 303.211 74.8314 306.362C75.8202 307.395 77.5502 309.166 76.5351 310.338C76.5349 310.338 85.0719 331.603 87.6808 342.353C90.1647 342.464 91.1717 346.94 91.0771 349.913C90.6994 355.323 84.1724 355.898 78.4504 356.428C74.5353 356.865 70.5096 357.091 66.5438 357.091C59.3785 357.097 41.4626 356.572 39.7675 349.815Z" fill="white"/>
<path id="&#240;&#159;&#150;&#141; Ink" fill-rule="evenodd" clip-rule="evenodd" d="M74.6457 75.7123C86.8078 67.1202 102.598 62.596 116.702 68.222C116.87 68.2845 116.803 68.5445 116.628 68.5035C114.4 67.9835 112.136 67.6923 109.859 67.5926C114.473 68.1919 118.952 69.4792 123.625 68.6116C139.234 65.8706 155.786 71.5009 166.156 84.3965C166.424 82.5017 168.639 82.5721 169.36 83.9118C183.152 89.0768 190.964 108.481 196.173 121.947C196.785 124.347 201.036 134.314 198.995 135.608C208.71 149.758 214.177 166.515 219.028 183.089L219.166 183.492C220.268 186.736 221.108 190.408 218.776 193.294C228.45 199.583 237.395 208.029 241.623 219.475C248.358 236.358 239.776 250.661 226.396 259.808C213.136 270.016 198.77 278.514 183.92 285.812C178.926 288.264 173.87 290.564 168.785 292.793L168.278 293.012C164.283 294.759 160.252 296.811 157.264 300.171C151.453 309.187 146.086 282.182 146.027 278.418C143.302 279.289 140.301 279.308 137.488 279.763C137.846 280.414 137.873 281.26 137.438 281.954C137.445 284.157 137.225 286.378 136.82 288.561C141.137 288.154 140.988 292.783 136.487 291.715L136.262 293.953C138.317 293.277 142.657 294.358 140.115 296.962C138.784 297.661 137.365 297.016 135.946 297.091C135.334 302.206 135.101 307.325 134.654 312.464C138.51 316.027 144.234 316.971 147.657 321.248C150.649 324.725 150.723 330.164 147.299 333.437C149.139 336.776 146.915 341.125 143.513 342.002C139.128 343.11 134.536 341.634 130.304 340.388C122.609 337.695 115.327 333.624 108.476 329.058L108.178 328.859C104.788 326.612 102.335 323.116 101.169 319.068L100.919 318.248C96.7786 304.577 89.4137 277.763 94.9386 265.098C97.5417 262.032 101.738 265.602 103.254 261.99C93.4677 261.175 77.6982 262.987 69.7239 257.042C70.5069 269 71.6683 280.95 71.6219 292.943C71.4231 294.52 72.4257 295.507 72.0228 297.098C73.4785 299.743 74.7353 302.501 75.9822 305.261L76.0609 305.339C77.3556 306.643 79.0198 309.287 77.3164 310.837C83.1133 319.859 86.258 330.506 88.8277 340.978C91.561 341.643 92.5936 347.048 92.4243 349.631C91.6571 356.572 83.9083 356.617 78.8165 357.203C75.8421 357.535 72.8584 357.743 69.8693 357.829C63.8212 358.003 57.7653 357.662 51.7669 356.825C46.8802 356.371 41.478 355.014 39.0442 349.987C37.0819 346.378 36.7756 340.963 39.4898 337.725C38.6964 331.524 40.5563 325.06 44.1907 320.17L44.3014 320.022L44.2921 320.019C44.2088 319.98 44.2162 319.833 44.5563 319.76L44.594 319.753L44.7573 319.484C50.0974 310.694 50.7628 308.283 46.8007 298.258L43.2004 298.121C36.5288 297.861 29.7872 297.488 23.3309 295.726C22.4163 296.536 20.8075 296.442 20.4485 294.855C15.7518 273.51 11.4424 252.067 6.86307 230.692C2.10359 208.196 -8.15218 174.046 16.666 161.002C14.1311 161.003 13.5663 157.773 12.9502 155.734C10.6916 147.813 15.6684 140.494 20.8739 135.352C39.1474 115.871 52.8958 91.328 74.6457 75.7123ZM39.7972 340.11C39.4537 350.597 46.9276 353.112 55.3396 353.38C60.5815 353.91 65.8624 354.072 71.1246 353.853L73.6033 353.701C77.7432 353.442 81.9143 353.118 85.9432 352.115C88.5965 351.536 89.2617 349.016 88.3033 346.552C87.8892 346.748 87.3994 346.761 87.0165 346.476C86.5877 346.158 86.2768 345.819 86.041 345.421C72.4095 351.862 55.2569 351.157 42.0464 343.746C40.3536 343.657 40.1338 341.51 39.7972 340.11ZM72.9341 306.915C67.9797 303.732 57.9461 302.349 53.1603 306.354C53.4883 308.366 52.7215 310.227 52.0025 312.02C54.1861 311.466 73.1796 308.749 70.4969 313.707C68.995 314.993 66.9502 314.108 65.2143 313.934C60.5588 313.523 55.8711 313.653 51.2295 314.213C50.8249 315.418 50.6686 316.769 50.1654 317.905C54.8665 316.258 59.7849 315.47 64.7176 315.188L64.9916 315.173C67.1451 315.052 69.6651 314.545 71.2683 316.414C72.6346 318.398 69.6022 319.763 68.0399 319.569C61.386 319.357 54.7185 319.619 48.0708 319.923L47.7785 320.435C43.0809 328.694 42.0693 331.946 43.968 341.851C43.9572 341.842 43.9459 341.834 43.9367 341.824C43.9294 342.36 43.7676 342.842 43.4232 343.202C57.7493 348.139 71.0927 347.859 85.3287 342.962C83.2471 331.858 79.1164 321.37 76.0447 310.574C75.2339 310.092 74.9934 309.027 74.3862 308.322C73.7723 308.266 73.1642 307.751 72.9341 306.915ZM107.266 262.113C101.024 266.8 103.843 272.339 105.568 278.704C108.091 288.059 110.029 297.591 112.187 307.045C113.459 315.443 118.459 322.727 125.653 326.504C128.889 328.315 132.439 329.486 136.067 329.967C137.468 330.118 139.02 329.959 139.958 331.293C140.49 331.904 140.549 332.909 139.958 333.509C138.103 335.743 132.711 333.728 130.209 333.171C111.672 327.204 108.854 312.939 105.279 295.056C103.546 285.123 99.2889 274.663 101.857 264.589C100.304 265.471 97.9172 265.169 96.8154 266.835C94.2719 283.95 99.8823 301.311 104.206 317.673C105.166 321.111 107.193 324.134 110.142 325.939C116.433 330.019 123.026 333.747 130.003 336.322L130.214 336.386C133.755 337.465 141.403 340.375 144.12 337.332C144.687 336.443 144.661 335.491 143.947 334.901L143.601 334.761C142.936 334.488 142.154 334.104 142.033 333.279L142.026 333.222L142.051 333.212C141.473 332.086 142.595 330.825 143.599 330.55C145.015 330.496 145.673 329.494 146.176 328.024C147.079 320.83 137.566 318.907 134.413 313.985C134.078 315.782 131.474 315.439 131.488 313.627C131.385 308.122 132.511 302.566 133.283 297.136C132.096 297.082 130.834 297.591 129.678 297.315C129.508 296.181 132.842 294.993 133.759 294.618C133.949 293.68 134.15 292.746 134.363 291.815C126.948 292.291 130.392 289.766 135.075 288.901C135.221 288.373 135.349 287.831 135.465 287.296L135.523 287.028C135.819 285.685 135.975 284.417 136.027 283.105C132.748 284.701 129.06 285.669 125.508 284.857C119.089 283.273 115.761 274.998 118.338 268.788C117.752 266.585 118.903 264.242 119.943 262.384C115.718 262.369 111.489 262.246 107.266 262.113ZM44.5093 319.86C44.454 319.895 44.4018 319.935 44.3513 319.978L44.3014 320.022L44.3139 320.026C44.3747 320.039 44.4633 320.003 44.5167 319.866C44.5055 319.878 44.5055 319.872 44.5093 319.86ZM44.8996 319.721C44.7983 319.725 44.7124 319.733 44.6376 319.745L44.594 319.753L44.5801 319.776C44.5541 319.817 44.538 319.835 44.5185 319.864C44.6255 319.772 44.7705 319.729 44.8996 319.721ZM52.5621 313.162C52.2164 313.21 51.8713 313.254 51.5238 313.301L51.4557 313.498C51.8238 313.38 52.1919 313.269 52.5621 313.162ZM67.9035 297.243C61.7363 297.91 55.5209 297.499 49.3518 298.244C50.5615 300.018 51.4244 301.982 52.1479 304.055C57.2148 298.974 65.3432 300.528 71.4393 302.399C71.029 301.127 70.6512 299.842 70.3129 298.547C69.4006 298.703 68.359 298.159 67.9035 297.243ZM218.325 193.916C209.895 203.039 197.154 205.547 186.25 209.575C183.603 211.336 184.897 214.825 185.234 217.475C185.866 221.825 186.367 226.196 186.731 230.581C188.078 228.926 191.606 228.71 193.581 228.038L193.844 227.975C196.479 227.333 199.217 226.37 201.905 226.994C202.989 227.244 203.062 228.837 202.201 229.404C200.019 230.843 197.349 230.885 194.848 231.199L194.208 231.281C191.995 231.561 189.764 231.816 187.54 231.716C187.261 231.763 186.979 231.65 186.802 231.449C187.079 236.033 187.635 240.682 187.446 245.274C187.344 246.089 187.097 246.976 186.552 247.58L186.534 247.65C186.226 248.81 185.222 250.88 184.067 249.347L183.85 248.933C182.154 245.682 180.545 242.282 179.725 238.651C179.452 245.994 179.231 253.332 178.956 260.672L178.947 260.849C178.876 262.094 178.647 263.593 177.884 264.552C177.952 265.122 177.471 265.454 177.042 265.25L176.985 265.278C176.573 265.474 175.911 265.654 175.659 265.121C174.211 261.522 172.668 257.981 171.254 254.372C171.329 256.224 171.245 258.08 171.3 259.933C171.328 262.048 171.698 264.534 170.748 266.491C169.937 268.205 167.917 268.653 166.833 267.162C165.965 265.737 165.472 263.976 164.682 262.466C162.455 274.155 156.816 256.973 155.78 253.432C152.598 255.408 149.243 257.078 145.773 258.413C146.727 259.948 146.496 262.035 146.796 263.8C147.067 266.43 147.28 269.063 147.494 271.7L147.573 272.205C148.872 280.452 150.765 288.882 154.932 296.061C158.459 292.392 163.087 290.228 167.614 288.285C173.064 285.898 178.47 283.402 183.802 280.734C198.215 273.537 212.093 265.098 225.03 255.22L225.47 254.894C232.659 249.52 240.151 242.475 240.335 232.449C240.955 216.014 228.015 204.802 218.325 193.916ZM59.4587 184.6C47.1517 172.337 28.3089 156.482 11.3111 168.132C-4.56609 182.404 8.01346 216.623 11.2566 235.051C15.3806 254.422 19.7392 273.74 23.7819 293.129C38.198 295.149 52.831 296.208 67.3183 294.387C67.1545 280.717 66.2859 267.063 66.0021 253.387C65.7382 246.341 65.8298 239.268 64.8355 232.289C63.9918 226.615 65.0754 219.76 62.1 214.803C60.9988 212.998 59.2076 211.418 58.8073 209.242C58.7981 209.14 58.9231 209.107 58.9838 209.164C59.8546 209.977 60.5541 210.947 61.4779 211.726L62.1573 212.285C63.2622 213.199 64.3627 214.174 65.047 215.473C65.1173 214.92 63.7985 209.984 64.5883 210.573L64.7372 211.006C65.7993 214.109 66.7568 217.248 67.0294 220.567C68.0719 231.882 68.6545 243.252 69.5472 254.583C71.7003 255.614 73.6786 257.13 76.03 257.678C79.8812 258.082 83.7377 257.853 87.5956 257.799L87.9573 257.795C99.2136 257.616 110.435 258.288 121.683 258.098C133.18 258.572 144.933 255.373 154.746 248.946C149.37 223.156 167.829 204.762 176.364 182.716C166.532 185.35 156.748 188.179 146.944 190.955C148.267 194.391 143.987 204.128 142.377 207.578C133.76 225.623 116.334 237.415 100.663 220.194C100.67 220.247 100.676 220.299 100.681 220.354C100.155 219.844 99.5738 219.395 98.9879 218.964C98.2009 225.826 96.072 232.743 92.0543 238.253L91.616 238.837C90.3628 240.497 88.5484 242.679 86.5418 241.425C85.0644 240.576 84.7864 238.924 85.073 237.258C80.2458 242.838 74.9864 244.098 78.2848 234.496L78.1756 234.616C76.3292 236.63 71.4284 241.081 70.9295 235.819C71.147 233.2 72.6663 230.861 73.4384 228.407C72.6136 228.949 71.686 229.216 70.7417 228.831C68.2092 227.799 69.5124 224.723 70.0773 222.786C71.5076 217.889 72.967 213.001 74.4509 208.122C73.9367 205.222 75.5653 202.336 74.0385 199.815C73.385 200.179 72.505 200.102 71.8739 199.207C68.1706 193.969 63.9206 189.115 59.4587 184.6ZM23.9531 294.018C23.9569 294.047 23.9569 294.073 23.9586 294.102C24.1005 294.112 24.2404 294.125 24.3819 294.139C24.2376 294.102 24.0952 294.057 23.9531 294.018ZM145.528 275.185C143.257 250.342 149.151 262.042 125.211 262.324C125.319 262.946 124.549 262.874 124.821 262.701C124.474 261.328 122.509 265.351 122.235 265.873C121.718 267.038 121.482 268.489 121.3 269.763C120.017 276.9 124.798 283.153 131.769 280.119C130.872 280.039 129.864 280.384 129.119 279.775C129.123 279.773 129.125 279.769 129.128 279.765C128.461 278.496 132.119 278.441 132.846 278.102C135.681 277.472 138.523 276.888 141.341 276.182C142.714 275.838 144.12 275.299 145.528 275.185ZM168.543 265.586C168.339 265.459 168.444 265.875 168.512 265.664C168.521 265.637 168.534 265.611 168.543 265.586ZM194.321 132.934C184.075 133.711 177.442 139.086 170.171 145.979C169.628 146.477 169.077 146.966 168.514 147.439C171.691 153.356 175.116 159.117 178.427 164.952L179.048 166.05C180.014 167.762 180.956 169.505 181.531 171.411C183.489 177.992 176.65 189.577 174.165 196.039C162.273 218.331 151.102 233.808 161.923 260.211C162.503 258.545 161.22 252.728 163.139 252.502L163.101 252.088C162.487 245.377 162.46 237.293 164.374 231.367C163.315 242.834 164.463 254.853 168.554 265.559C169.625 255.409 168.207 244.071 168.536 233.646C168.523 232.043 170.805 232.06 170.87 233.646L170.948 236.337C171.215 245.46 171.677 255.013 176.671 262.73C177.152 250.982 175.135 238.607 179.011 227.344C179.328 226.533 180.469 226.595 180.502 227.559C180.573 231.393 182.1 244.371 184.733 246.622C185.457 244.275 185.383 241.706 185.267 239.248C184.908 230.337 183.699 221.642 182.214 212.856C181.945 211.12 182.426 208.984 184.119 208.314C185.376 207.043 187.112 206.142 188.547 205.419C197.671 200.631 210.223 201.553 216.394 191.692L216.694 191.212C217.413 190.055 218.088 188.913 218.391 187.526C217.559 184.226 216.364 181.01 215.348 177.771C214.441 174.909 213.509 172.056 212.532 169.22L212.205 168.275C207.842 155.626 202.289 143.484 194.321 132.934ZM123.673 262.365C123.439 262.445 123.254 262.694 123.056 262.879L123.013 262.917L123.134 262.815C123.263 262.704 123.379 262.602 123.557 262.457L123.673 262.365ZM69.6373 255.848L69.6926 256.614C70.046 256.691 70.3922 256.786 70.7382 256.88C70.3368 256.571 69.9633 256.229 69.6373 255.848ZM121.838 238.54C121.797 238.39 121.999 238.302 122.075 238.434C125.053 243.998 130.915 246.214 136.559 247.095C137.52 247.334 137.402 248.743 136.559 249.04C133.404 250.151 129.761 248.655 127.179 246.664C124.532 244.625 122.727 241.871 121.838 238.54ZM178.608 235.364C178.049 239.647 178.1 244.015 178.052 248.338C178.236 244.015 178.389 239.687 178.608 235.364ZM96.3964 242.907C96.9819 243.122 97.5875 243.262 98.1836 243.317C97.5506 243.638 96.8271 243.477 96.3964 242.907ZM50.482 104.404C41.531 115.168 33.6949 126.95 24.0676 137.066C18.4264 142.48 13.0894 149.88 17.4888 158.029C18.4167 158.418 18.5797 159.87 17.7796 160.552C17.9707 160.526 19.1986 159.894 18.9227 160.412C16.4564 161.53 14.288 163.15 12.4197 165.111C24.0598 156.017 39.4942 163.297 49.6463 171.448C54.6567 175.335 59.3151 179.62 63.6774 184.231C65.2384 184.528 66.8525 185.413 68.1536 186.105C77.1278 190.684 78.5338 196.87 77.7933 206.76C75.1 212.212 73.8259 218.447 71.9494 224.293C70.0193 228.837 73.8163 225.774 74.3606 223.792C75.682 222.046 76.3196 219.725 77.1296 217.694L77.1878 217.549C77.4178 216.969 77.9111 216.537 78.5461 216.73C79.056 216.885 79.5288 217.555 79.3309 218.135L78.9243 219.247C76.9555 224.621 74.9214 230.023 73.3538 235.53C78.6511 232.16 81.274 225.783 84.055 220.151C84.819 218.654 86.875 219.973 86.1866 221.474C85.5479 222.86 84.8963 224.242 84.2061 225.6C82.4021 229.683 81.0943 233.99 80.0113 238.346C85.9655 234.575 88.0408 226.891 89.7535 220.407C89.8592 218.557 92.3707 218.921 92.1115 220.737C91.4745 224.342 90.5028 227.893 88.9825 231.194L88.5805 233.691C88.3129 235.355 88.0479 237.02 87.7953 238.687C87.9387 238.612 88.0935 238.602 88.2424 238.642C93.5178 233 95.6293 225.216 97.4713 217.735C96.5955 214.571 97.6673 211.335 97.5449 208.073C98.0107 203.897 96.7424 200.005 94.9859 196.276C93.9332 184.74 83.4711 179.736 76.1769 172.955C67.2431 163.579 62.5458 149.223 49.9887 144.575C48.6831 144.664 47.4245 144.366 46.2025 143.919C46.1492 143.903 46.14 143.805 46.2025 143.796C47.4455 143.58 48.6877 143.243 49.9337 143.002C50.2694 141.839 51.6118 141.697 52.6212 142.217C63.479 137.163 72.4785 128.276 81.1065 119.82C72.6819 111.543 61.7744 106.405 50.482 104.404ZM100.444 221.73C100.624 221.943 100.783 222.174 100.901 222.426C100.933 222.491 100.929 222.568 100.939 222.639C100.784 222.33 100.621 222.025 100.444 221.73ZM66.0005 186.744C68.9999 190.087 71.88 193.57 74.5907 197.213C73.6184 191.954 70.4342 188.915 66.0005 186.744ZM166.39 146.704C159.877 159.198 149.68 170.173 147.295 184.661C147.104 185.9 147.091 187.155 147.067 188.406C154.337 185.258 161.991 183.296 169.491 180.88C172.334 180.074 175.095 178.804 178.081 178.643C180.543 174.11 178.566 169.673 176.399 165.539C173.576 158.976 169.11 153.3 166.39 146.704ZM61.4357 140.627C59.5526 141.749 57.6105 142.776 55.5623 143.504C57.3256 144.454 58.9378 145.654 60.4307 147.021C61.1808 144.992 61.4617 142.795 61.4357 140.627ZM109.316 68.6031C108.338 77.7563 108.386 87.201 110.674 96.1342C114.087 110.056 126.724 123.072 141.022 120.342C155.449 117.14 162.539 101.273 165.514 87.3206C157.917 77.0839 146.024 70.6803 133.767 70.1649C125.797 69.8189 116.787 72.5476 109.316 68.6031Z" fill="black"/>
</g>
<g id="Head">
<g id="head/hat beanie">
<path id="Path" fill-rule="evenodd" clip-rule="evenodd" d="M142.739 2.11597C150.795 2.11597 160.462 6.26451 161.284 6.34748L161.306 6.34874C161.739 6.34874 163.428 7.71599 166.375 10.4505L163.184 17.0627L163.442 17.3246C164.678 18.5833 165.733 19.7306 166.566 20.635C173.367 28.0194 174.589 57.0129 172.986 67.1239C171.384 77.2349 168.415 87.1286 154.595 87.1286C140.774 87.1286 125.399 78.3024 123.03 75.5539C121.451 73.7215 119.678 72.8436 117.71 72.9203C117.629 72.8118 117.548 72.7037 117.469 72.596L117.179 72.5524C114.455 72.1334 112.503 71.5694 111.324 70.8606C109.02 69.4761 106.487 62.1977 106.487 60.5944C106.487 59.0071 102.706 47.4601 102.63 46.2381L102.629 46.2043C102.629 45.1828 97.6892 40.487 97.6892 38.9957C97.6892 37.5045 96.6935 37.5949 97.6892 32.3399L97.9785 30.7961C99.0382 25.201 101.112 15.9364 109.02 11.9106C117.71 7.4867 134.6 2.11597 142.739 2.11597Z" fill="white"/>
<path id="&#240;&#159;&#150;&#141; Ink_2" fill-rule="evenodd" clip-rule="evenodd" d="M107.678 11.7028C112.012 6.81698 136.616 -0.740191 149.064 0.86175L149.438 0.91311C150.431 1.04691 151.41 1.24951 152.376 1.52475C155.499 2.29943 158.725 3.47243 161.305 5.43178C163.46 7.03465 170.255 9.65227 168.252 13.8454C168.995 15.3399 169.272 17.1863 168.77 18.6583C168.707 19.1667 168.56 19.635 168.371 20.1205C169.957 22.6073 171.214 25.4197 172.231 28.0947C174.008 34.8267 175.114 41.8327 175.275 48.7012C175.814 61.7505 174.467 77.3379 163.767 85.7762C157.302 91.1232 147.177 91.3029 139.912 84.6731C139.5 84.1549 137.561 82.7566 138.208 82.5114C138.401 82.7273 138.599 82.9376 138.8 83.144C138.791 83.1211 138.789 83.0981 138.793 83.0733L138.604 82.891C138.247 82.5402 137.784 82.0314 138.311 82.131C138.334 82.1597 138.359 82.1845 138.384 82.2132C138.496 82.2843 138.58 82.3459 138.646 82.4002L138.68 82.4289L138.669 82.4174C138.366 82.0737 138.184 81.7232 138.637 81.9471L138.698 81.9781C138.899 82.2036 139.104 82.4196 139.313 82.6299C139.31 82.605 139.313 82.5802 139.326 82.5534L139.131 82.3537C138.941 82.156 138.97 82.1551 139.063 81.9953C138.659 81.3942 139.413 81.7512 139.466 81.9857C139.938 81.8672 140.352 82.8076 140.655 82.9223C153.972 93.7961 173.297 84.1477 172.984 53.8477L172.979 53.2549C172.888 43.5662 172.12 33.6081 168.347 24.8377C167.98 23.9929 167.57 23.171 167.118 22.3759C166.807 21.7795 166.474 21.1985 166.116 20.6327C165.113 20.5467 164.124 20.3517 163.148 20.0497C162.813 19.9599 162.482 19.8605 162.151 19.7439C157.314 20.0241 152.585 20.329 147.734 20.618L146.219 20.7182C142.11 20.9988 137.86 21.4482 134.544 24.1477C131.291 26.6054 131.276 31.4516 128.491 34.1499C124.519 37.0129 124.49 39.5946 123.725 43.8138C123.782 46.9943 125.858 51.6154 122.048 52.954C122.691 53.9274 121.795 53.4597 121.724 53.1183C121.717 53.1202 121.71 53.1222 121.704 53.1222C122.277 54.2531 121.435 53.5409 121.361 53.1776C121.316 53.1642 121.271 53.1298 121.226 53.082C121.803 54.0729 120.87 53.379 120.925 53.1986C119.81 51.378 117.515 51.0953 115.897 51.5778C115.877 51.6428 115.805 51.6485 115.76 51.6141C108.881 53.1975 110.656 68.3233 117.706 66.8611C118.008 66.7957 118 66.9496 118.06 66.9643C117.897 66.5101 118.357 66.695 118.352 66.7904L118.38 66.7889C118.402 66.7868 118.393 66.7843 118.409 66.7904C118.252 65.8616 119.138 67.2072 119.068 67.2625C119.095 67.2453 119.126 67.2357 119.153 67.2319L119.122 67.1437C118.975 66.7276 118.988 66.9006 118.989 66.6623C118.878 66.3677 118.87 66.4966 118.896 66.3047C119.284 65.9851 119.399 66.9545 119.529 67.0254C119.307 66.6967 119.483 66.4281 119.693 66.6067C121.28 70.1538 123.331 73.4866 125.982 76.1121C126.272 76.3548 126.565 76.5938 126.869 76.8193C127.996 77.8623 129.726 78.533 130.781 79.457C130.781 79.4723 130.774 79.4914 130.763 79.5105L130.788 79.5337L130.812 79.5583L131.179 79.7456C131.287 79.8431 131.384 79.952 131.47 80.0725C131.562 80.1852 131.643 80.3095 131.712 80.4413C131.746 80.6019 131.67 80.6688 131.526 80.6C131.463 80.5771 131.4 80.5503 131.338 80.5254C131.341 80.5312 131.343 80.535 131.347 80.5388C131.367 80.572 131.507 80.9162 131.346 80.8602L131.327 80.8523C131.238 80.8179 131.15 80.7797 131.064 80.7433C131.167 80.8791 131.26 81.0262 131.343 81.1505C131.431 81.2479 131.485 81.3626 131.507 81.4926C131.503 81.5652 131.465 81.5958 131.397 81.5863C131.293 81.5499 131.19 81.5117 131.087 81.4716L131.116 81.5308C131.189 81.6825 131.292 81.9368 131.109 81.8519C130.952 81.8003 130.801 81.7411 130.65 81.6761C130.637 81.7029 130.612 81.7124 130.562 81.6876C130.081 81.506 129.617 81.2843 129.173 81.0224C128.782 80.7204 128.388 80.4241 127.996 80.1241C127.627 79.889 127.27 79.6271 126.93 79.3328C124.655 77.7716 122.662 75.7883 121.082 73.5795C118.438 76.011 113.153 73.6881 109.884 71.7848C106.992 70.0836 105.856 66.9383 105.562 63.5471C104.951 58.9816 101.438 57.4189 101.682 47.4014C101.677 47.4033 101.672 47.4033 101.664 47.4033C101.537 47.3632 101.413 47.3097 101.296 47.2409C101.175 47.1797 101.062 47.1071 100.955 47.0192L100.824 46.8261C100.756 46.786 100.695 46.7439 100.648 46.7019L100.623 46.7351C100.547 46.8336 100.598 46.6854 100.603 46.656L100.375 46.3264C99.8334 45.5417 99.2398 44.6612 98.7562 43.9571L98.741 43.9857C98.73 44.0073 98.7243 44.0229 98.7294 44.0298C97.5786 42.2736 96.4963 40.1524 96.1956 38.0988C95.8406 36.5169 95.9793 34.8869 96.289 33.4217C97.6169 28.2906 101.967 16.6794 107.678 11.7028ZM138.909 82.6629L138.837 82.5947L138.901 82.6791C138.934 82.7227 138.968 82.7619 139.023 82.8019C139.02 82.7885 139.02 82.7751 139.021 82.7598C138.985 82.73 138.947 82.6975 138.909 82.6629ZM149.009 3.43994C140.568 2.66908 132.265 4.64429 124.21 7.03522L123.654 7.20486C119.074 8.593 114.231 9.84211 110.36 12.8133C104.952 17.2127 102.16 24.2114 99.7226 30.6731C97.5946 35.4741 98.6824 40.8877 101.889 44.24C102.223 40.9087 102.792 37.6749 103.681 34.467C103.866 33.9658 103.726 33.8017 104.126 33.7363C104.73 42.381 101.755 48.7681 107.642 59.0134C110.196 63.8476 107.239 67.3848 114.452 69.9286L114.647 70.0078C116.149 70.6101 117.79 71.0855 119.262 70.7488L119.13 70.521C118.996 70.2864 118.955 70.1725 119.151 70.0722C119.145 70.0607 119.138 70.0492 119.131 70.0359C118.973 69.7186 118.82 69.3975 118.674 69.0725C118.615 69.0936 118.555 69.1088 118.494 69.126C118.534 69.2044 118.539 69.2828 118.427 69.3095C118.031 69.454 117.624 69.512 117.207 69.4848L117.117 69.4777C116.646 69.4472 116.35 69.356 116.084 69.2713C115.996 69.256 115.908 69.2407 115.821 69.2216C114.968 69.0205 114.064 68.5091 113.479 68.0022C106.81 63.9791 107.499 50.2843 115.719 48.9898C115.888 40.3672 119.749 25.8202 126.157 17.6038C131.95 10.046 147.763 6.77031 158.765 7.92535C158.925 7.98173 159.086 8.03869 159.246 8.09623C160.943 8.2564 162.561 9.05955 164.26 9.43265C163.04 8.46187 161.657 7.81525 160.231 7.26574C157.392 5.42107 154.137 4.42296 150.992 3.719C150.341 3.54889 149.68 3.45523 149.009 3.43994ZM115.343 55.9166C115.785 55.6616 115.734 55.9078 115.836 55.8363C119.015 55.5608 122.443 58.5172 124.22 60.9817C124.08 61.1365 123.7 60.6778 123.633 60.6051C123.624 60.6147 123.614 60.6223 123.603 60.6262L123.652 60.7003C124.373 61.7982 122.945 60.5063 122.811 60.2401C122.788 60.2535 122.764 60.2611 122.737 60.2554C122.85 60.3733 123.196 60.6808 123.256 60.8995L123.347 60.9805C124.211 61.7666 124.14 62.3579 123.159 61.2416C123.182 61.2932 123.191 61.341 123.175 61.3793L123.208 61.4032C123.691 61.7613 124.088 62.7595 123.079 61.7348C123.184 62.4833 122.08 61.0365 122.044 61.0467C120.134 59.4535 117.32 57.9042 114.924 57.696L114.841 57.686C114.401 57.6259 114.193 57.4873 114.348 57.1819C113.806 57.045 113.933 56.7618 114.189 56.7709C113.807 56.5041 114.151 56.2489 114.373 56.3485C114.22 55.9003 114.832 56.1989 114.888 56.1364C115.205 55.6167 115.29 56.0502 115.343 55.9166ZM108.679 28.1348C110.206 27.5408 114.716 29.3191 114.355 31.6743C114.141 32.215 113.433 32.5248 112.935 32.2196L112.286 31.7563C111.155 30.9524 110.136 30.2475 108.923 29.5464C108.262 29.1983 107.978 28.4594 108.679 28.1348ZM117.366 24.6349L116.777 24.2273C113.594 22.0151 109.096 18.6632 117.074 22.1312C117.983 22.5454 119.192 22.7904 119.688 23.7101C120.467 25.4053 118.416 25.5193 117.366 24.6349ZM117.724 14.7093C117.469 13.68 120.646 14.8878 121.571 15.2063L121.712 15.2628C122.612 15.6189 123.643 15.9492 124.181 16.774C124.812 17.9135 123.536 18.1496 122.745 17.6349C121.124 16.5098 119.347 15.661 117.724 14.7093ZM125.804 9.91466C124.016 7.84018 128.802 9.82746 129.519 10.3791L129.54 10.3954C130.075 10.7954 129.966 11.6571 129.464 11.9101C128.033 11.939 126.981 10.6729 125.804 9.91466ZM133.943 7.64182C131.1 5.47146 134.845 6.50379 136.146 7.35435C137.033 8.18484 136.119 9.58683 133.943 7.64182Z" fill="black"/>
</g>
<g id="face/Eating Happy">
<path id="&#240;&#159;&#150;&#141; Ink_3" fill-rule="evenodd" clip-rule="evenodd" d="M150 63.9652C151.006 62.2064 153.152 66.5149 153.38 67.2558C153.582 67.9121 153.715 68.5844 153.783 69.2644C154.563 69.4502 155.374 69.4506 156.174 69.2878C157.362 69.0456 158.089 68.3669 159.122 67.7842C159.835 67.3815 160.734 67.8537 161.105 68.5215C161.542 69.3076 161.264 70.1234 160.69 70.7095C159.601 71.8207 157.459 72.076 156.038 71.7808C155.224 71.6118 154.478 71.2876 153.819 70.8163C153.815 70.9042 153.812 70.9922 153.805 71.08L153.793 71.2323C153.684 72.4648 153.365 74.0145 152.464 74.8164C150.985 76.1319 149.161 73.602 150.597 72.288L150.642 72.2486C151.535 71.4824 151.729 69.4267 151.681 68.2945C151.65 67.5555 151.523 66.807 151.303 66.1032L151.258 65.963C151.192 65.7642 150.471 63.8782 150.211 64.1183L150.198 64.1319C150.091 64.2681 149.917 64.1094 150 63.9652ZM158.037 54.0404C159.396 54.9177 161.467 56.9635 160.005 59.1385C158.284 61.0563 155.806 58.8574 154.586 57.863C153.454 57.0922 152.182 59.0745 153.232 59.9744C162.054 66.9117 165.634 54.2698 158.725 53.0089C157.964 52.8699 157.681 53.769 158.037 54.0404ZM143.526 45.9311C144.854 45.6809 146.215 46.0316 147.314 46.8569L147.397 46.9206C148.456 47.743 149.641 49.1871 149.033 50.6048C148.789 51.174 148.059 51.2632 147.595 51.0052C146.824 50.5755 146.684 49.5183 145.996 48.9333C145.431 48.4537 144.671 48.1628 143.944 48.2329C142.236 48.3977 141.186 50.1869 140.655 51.7288C140.587 51.9261 140.315 52.0027 140.208 51.7909C138.957 49.3077 141.171 46.3749 143.526 45.9311ZM164.799 44.9939C167.343 44.7713 170.321 47.5726 169.651 50.4247C169.33 51.7932 167.418 51.7541 167.079 50.4247C166.892 49.6932 166.91 49.046 166.415 48.4386C166.005 47.9371 165.424 47.6458 164.799 47.6905C164.11 47.7398 163.475 48.1054 162.992 48.6194C162.556 49.0835 162.295 49.7626 161.843 50.1734C161.732 50.2743 161.583 50.2808 161.474 50.1734C160.696 49.4121 161.163 47.8272 161.656 47.0324C162.361 45.8951 163.51 45.1069 164.799 44.9939ZM138.682 40.8726C140.314 39.3382 143.279 37.8563 145.48 38.6114C146.745 39.0455 147.297 41.2109 145.884 41.8973C144.249 42.692 142.363 42.3686 140.698 43.1924C139.999 43.5386 139.341 43.9711 138.855 44.6055C138.471 45.1055 138.081 45.7634 137.526 46.0516C137.381 46.1275 137.183 46.1294 137.066 45.9888C135.851 44.5281 137.62 41.8705 138.682 40.8726ZM161.994 38.5353C163.003 38.2346 164.122 38.2407 165.146 38.4296C166.171 38.6184 167.211 39.0693 168.047 39.727L168.144 39.804C169.057 40.5347 170.146 41.5978 170.088 42.8922C170.039 43.9731 168.969 44.7042 168.044 44.1377C167.291 43.6757 166.936 42.7502 166.298 42.134C165.772 41.6254 165.154 41.2244 164.494 40.9434C163.761 40.6313 163.027 40.4851 162.241 40.4711C161.635 40.4604 161.026 40.6714 160.432 40.7389C160.481 40.8456 160.011 40.7959 159.742 40.7012C159.542 40.611 159.541 40.3432 159.61 40.1695C159.953 39.3088 161.201 38.7715 161.994 38.5353Z" fill="black"/>
</g>
</g>
</g>
</svg>
